# xmcd
#
# Track frame offsets:
# 150
# 14207
# 32973
# 49665
# 68601
# 84518
# 109728
# 124593
# 150009
# 167193
#
# Disc length: 2447 seconds
#
# Revision: 1
# Processed by: cddbd v1.4PL0 Copyright (c) Steve Scherf et al.
# Submitted via: inCDius 2.0b9
#
DISCID=77098d0a
DTITLE=Carvin Jones Band - Live in Rome, Italy - World Tour 2002
DYEAR=1900
DGENRE=
TTITLE0=Intro
TTITLE1=Robin Hood
TTITLE2=Spoonful
TTITLE3=Farther On Up the Road
TTITLE4=Mary Had a Little Lamb
TTITLE5=While We Cry
TTITLE6=Johnnie B. Goode
TTITLE7=I'm In the Mood
TTITLE8=Come On In
TTITLE9=Evil Is Going On
EXTD=(p)(c) Carvin Jones 2002
EXTT0=
EXTT1=
EXTT2=
EXTT3=
EXTT4=
EXTT5=
EXTT6=
EXTT7=
EXTT8=
EXTT9=
PLAYORDER=
